<svg width="144" height="56" viewBox="0 0 144 56" fill="none" xmlns="http://www.w3.org/2000/svg">
<path d="M142.488 15.8223C141.022 15.8223 141.02 18.1081 142.488 18.1081C143.957 18.1081 143.957 15.8223 142.488 15.8223Z" fill="#212121"/>
<path d="M137.687 32.7235C137.121 32.5681 136.412 32.9144 136.285 33.5212C135.974 35.0196 135.65 37.1351 134.208 38.0003C133.108 38.6608 131.832 38.5146 131.578 37.1019C131.416 36.2025 131.507 35.207 131.554 34.3007C131.597 33.4378 131.676 32.5749 131.793 31.7189C131.894 31.7075 131.996 31.696 132.098 31.6857C133.18 31.5692 134.262 31.456 135.344 31.3429C135.956 31.2789 136.483 30.8629 136.483 30.2C136.483 29.6308 135.961 28.9931 135.344 29.0571C134.298 29.1657 133.254 29.2765 132.209 29.3885C132.413 28.4536 132.658 27.5279 132.941 26.6136C133.157 26.0147 133.364 25.4124 133.558 24.8066C133.745 24.2192 133.338 23.5597 132.763 23.4009C132.288 23.2694 131.864 23.4546 131.588 23.7975L131.384 23.7266C131.334 23.882 131.288 24.0363 131.246 24.1918C131.193 24.1952 131.139 24.1689 131.048 24.3369C131.087 24.5175 130.865 24.8844 131.048 24.9598C130.982 25.1415 130.882 25.1438 130.805 25.1952C130.788 25.3689 130.667 25.7472 130.576 26.0421C130.493 26.3176 130.451 26.5244 130.584 26.4341C130.577 26.4536 130.571 26.4718 130.563 26.4913C130.547 26.5187 130.53 26.5484 130.515 26.5827L130.554 26.5153C130.534 26.5667 130.516 26.6181 130.497 26.6696C130.472 26.7153 130.448 26.7599 130.42 26.8044C130.42 26.8021 130.42 26.7999 130.421 26.7976C130.45 26.7313 130.482 26.6524 130.515 26.5816L130.436 26.7141C130.459 26.5553 130.448 26.3896 130.416 26.505C130.391 26.6273 130.368 26.7496 130.344 26.8719L130.297 26.9519C130.307 26.961 130.317 26.961 130.328 26.9553C130.31 27.049 130.292 27.1427 130.274 27.2376C130.078 27.7336 129.875 28.225 129.663 28.7131C129.524 28.9885 129.394 29.2639 129.287 29.5417L129.226 29.512C129.204 29.5805 129.178 29.6514 129.152 29.7222C127.639 29.8902 126.126 30.0628 124.615 30.2377C124.297 29.824 123.711 29.6205 123.151 29.9268C123.116 29.9451 123.083 29.9668 123.049 29.9851L122.634 29.5234C122.501 29.6205 122.376 29.7154 122.256 29.8068C122.138 29.9005 122.019 29.984 121.918 30.0845C121.814 30.1805 121.714 30.2743 121.614 30.3668C121.564 30.4126 121.515 30.4583 121.466 30.504L121.354 30.6217C119.303 30.8674 117.255 31.12 115.206 31.3806C115.262 31.3692 115.333 31.3554 115.421 31.3417C114.383 31.3554 114.578 31.3874 114.674 31.448C112.863 31.68 111.052 31.9166 109.241 32.1589C109.884 32.04 109.125 32.0686 109.16 32.0229C108.667 32.1578 108.541 32.1932 109.105 32.1772C109.035 32.1863 108.967 32.1955 108.897 32.2046C108.519 32.256 108.141 32.3086 107.762 32.3589C107.744 32.3349 107.715 32.3098 107.666 32.2823C107.564 32.2926 107.499 32.3418 107.451 32.4012C106.692 32.5052 105.93 32.6081 105.171 32.7144C105.676 31.5246 105.938 30.048 105.04 28.9771C104.584 28.4342 104.014 28.2056 103.402 28.1519C103.377 28.1405 103.352 28.129 103.327 28.1176C103.249 28.0868 103.171 28.0593 103.093 28.0388C102.936 27.9965 102.784 27.9725 102.643 27.9645C102.358 27.9473 102.114 27.9736 101.904 28.001C101.481 28.0582 101.188 28.1039 100.962 28.041C100.637 28.225 100.203 28.3302 99.8889 28.5222L99.8525 28.3313C99.4583 28.4353 99.1427 28.5119 98.8306 28.6045C100.251 26.9313 101.658 25.2467 103.052 23.5517C104.635 21.6248 106.202 19.6819 107.751 17.7275C108.134 17.2452 108.22 16.5824 107.751 16.1115C107.355 15.7138 106.525 15.6257 106.14 16.1115C106.124 16.1321 106.107 16.1526 106.091 16.1732C105.956 15.9698 105.77 15.8475 105.146 16.3675L104.832 17.0738L104.562 17.1652L104.946 16.6669C104.611 16.8555 104.571 17.1127 104.481 17.3652C104.38 17.3607 104.269 17.4064 104.153 17.5024L103.93 18.2647C103.777 18.2556 103.944 17.8533 103.582 18.1938C103.477 18.5504 104.005 18.1116 103.721 18.6144C103.385 18.8019 103.359 18.6464 103.192 19.0499C103.091 19.0442 103.106 18.9424 103.184 18.7904C103.025 19.1424 102.595 19.5847 102.604 19.8408C102.232 20.0179 101.843 20.8465 101.634 20.6282C101.615 20.7642 101.402 21.2877 101.192 21.5608C101.313 20.8476 100.359 22.538 100.168 22.1643C100.124 22.7289 99.2111 23.5449 98.8226 24.2901C98.8328 24.2386 98.8511 24.1358 98.9092 24.0912C98.5913 24.4283 98.4307 24.4683 98.1937 24.6558C98.36 24.8729 97.9454 25.465 97.8189 25.8673C97.2561 26.1335 97.8018 25.4009 97.4976 25.3769C97.681 25.4958 97.0271 26.2684 97.2891 26.2376C96.8881 26.465 96.9895 26.473 96.6762 26.4993C96.8813 26.7747 96.4586 26.8433 96.3811 27.2502C95.8491 27.6205 96.0394 27.169 95.6691 27.7587C95.3797 27.9416 95.6862 27.3987 95.6862 27.3987C95.2271 27.9279 95.66 27.8102 95.6725 28.017C95.1815 28.6994 95.2795 28.1896 94.9969 28.3211C94.7064 28.7599 94.621 29.2159 94.3578 29.5051C94.3077 29.4994 94.2461 29.5474 94.2655 29.4457C94.0547 29.992 93.206 30.6869 92.9656 31.3349C92.961 31.3383 92.9576 31.3406 92.9531 31.344C92.9109 31.3612 92.8813 31.3657 92.8608 31.3623C92.8813 31.3623 92.8995 31.368 92.9189 31.3703C92.8517 31.424 92.7867 31.48 92.7241 31.5395C92.7207 31.504 92.715 31.4412 92.7856 31.3646C92.8107 31.3623 92.8346 31.3623 92.8585 31.3623C92.8391 31.3577 92.83 31.3452 92.8255 31.3269C92.8391 31.3154 92.854 31.304 92.8722 31.2914C92.8574 31.2994 92.8403 31.3097 92.8243 31.3177C92.8095 31.1909 93.0419 30.8731 92.5885 31.408C92.6398 31.3886 92.6853 31.3772 92.7275 31.3703C92.4586 31.5143 92.0576 31.712 91.7318 31.9098C91.3729 32.1429 91.112 32.3669 91.2385 32.4846C91.1359 32.4423 90.891 32.5909 90.6244 32.8206C90.3259 33.0812 89.9875 33.4195 89.7586 33.6572L89.7278 33.4424C89.4316 33.9727 89.4578 34.0344 88.8938 34.5533C88.7583 34.6378 88.6933 34.5601 88.8244 34.4641C88.4108 34.7258 88.5908 34.8653 88.0964 35.1944C88.0804 35.1887 88.0645 35.1842 88.0485 35.1807L88.1476 34.9807C88.0155 35.0836 87.9255 35.1602 87.8617 35.2253C87.431 35.3282 86.6609 35.4539 86.1881 35.5613C84.9201 35.7659 83.6532 35.9716 82.3863 36.1819C79.5142 36.6585 76.6456 37.1499 73.7791 37.6551C73.8259 37.6071 73.4488 37.6848 74.3408 37.5397C73.1765 37.6894 72.8848 37.6345 71.6988 38.0243C71.6886 38.0265 71.6795 38.0277 71.6692 38.03C72.0224 37.7968 70.7339 37.9831 70.1939 38.1305L71.0335 38.1054C70.4137 38.2414 69.8658 38.3237 69.3075 38.4083L69.5673 38.1305C68.3482 38.2105 67.2887 38.5111 66.3021 38.7946C65.3144 39.0769 64.395 39.3226 63.4437 39.2666C62.8775 39.526 64.5431 39.1774 64.2981 39.3774C64.1124 39.4117 63.9267 39.4472 63.741 39.4814C62.792 39.5706 61.8726 39.5032 61.5787 39.558C60.0509 39.718 60.2378 40.1489 58.6485 40.3615C58.7077 40.374 58.7681 40.3946 58.8012 40.4266C58.1506 40.5535 57.5001 40.6803 56.8507 40.8083C56.8735 40.7501 56.9886 40.6803 57.2039 40.6163C57.4659 40.5569 57.597 40.5569 57.5913 40.5866C57.9399 40.4872 58.3979 40.3603 57.9467 40.3603L57.8202 40.4678C57.2609 40.4952 55.7536 40.8038 56.0829 40.6026C55.389 40.8083 55.6397 40.8095 56.1136 40.7546C54.8479 40.9204 54.0857 41.1695 52.7152 41.3672C52.9544 41.3649 53.1846 41.4164 52.9556 41.4609C51.3822 41.6987 51.6306 41.7695 51.3082 41.917C50.988 41.9821 50.6679 42.0472 50.3489 42.1124C50.055 42.0587 50.6303 41.829 49.4284 42.1684C48.5295 42.2713 49.1983 41.997 49.5366 41.8587C48.2504 42.2873 47.0553 42.2724 46.2965 42.4015L46.9767 42.1924C46.57 42.317 46.2293 42.3867 45.883 42.4598L46.3125 42.5353C45.9001 42.5924 45.5549 42.6644 45.548 42.597C45.1504 42.789 45.924 42.7936 45.1208 43.1101C44.5614 43.1433 43.4859 43.5422 43.2535 43.3707C44.8029 43.1136 43.3766 43.1799 44.1228 42.9501C43.92 42.9959 43.6899 43.037 43.4313 43.0736C43.3652 43.0633 43.4803 43.0176 43.5885 42.9821C41.9149 43.1376 42.8867 43.373 41.1937 43.7319C41.3829 43.5662 40.754 43.5924 40.484 43.6793C41.1653 43.5319 40.852 43.8062 40.247 44.0336C39.1442 44.1788 39.0838 44.3605 38.5142 44.4748L39.1715 44.3765C39.0849 44.4508 38.93 44.5125 38.7181 44.5753C38.39 44.6473 38.0619 44.7193 37.7338 44.7913C37.7509 44.7833 37.7714 44.7742 37.7942 44.7662C37.024 45.0096 36.0078 44.8999 34.9984 45.2508C34.439 45.2897 34.897 45.0394 34.4094 45.0896C33.2052 45.5034 32.9773 45.2736 31.8267 45.6165C34.7979 44.3868 37.7463 43.0999 40.6697 41.7558C46.9664 38.8609 53.1424 35.703 59.1748 32.2892C62.1734 30.592 65.1378 28.8331 68.0634 27.0124C70.9298 25.2284 73.8498 23.4523 76.5601 21.4328C81.0238 18.1081 86.1755 12.5319 83.1952 6.57857C82.2428 4.67679 80.7002 3.37846 78.8797 2.48586C78.9469 2.50414 79.0141 2.52357 79.0824 2.54186C78.7224 2.31442 78.4126 2.20585 78.1289 2.14756C77.4465 1.86298 76.7344 1.6264 76.0064 1.43096C74.9708 1.08581 73.9216 0.77837 72.8575 0.565791C72.3175 0.458358 71.7729 0.377213 71.2295 0.329211C70.6872 0.282352 70.1392 0.267495 69.6083 0.306353C69.6459 0.266352 69.7142 0.186349 70.0628 0.195492C69.5581 0.161205 68.5841 0.0537728 67.7775 0.00805686C67.0278 -0.0182298 66.4274 0.0149142 66.489 0.180634C66.375 0.0869168 65.8703 0.0720591 65.2551 0.0914884C64.559 0.13149 63.7228 0.224064 63.1452 0.282352L63.3229 0.0914884C63.0791 0.155491 62.8946 0.204635 62.7339 0.246922C62.5733 0.293781 62.4366 0.33264 62.2873 0.365784C62.1495 0.396642 62.0002 0.422929 61.8134 0.448072C61.4648 0.46293 61.1162 0.478931 60.7675 0.49836C60.7083 0.46293 60.788 0.416071 61.0159 0.422929C60.4383 0.396642 60.272 0.477788 59.9712 0.545219C59.6476 0.565791 59.3241 0.589792 59.0005 0.614935L59.4494 0.469787C58.522 0.520075 58.4366 0.568077 58.0823 0.691509C57.4614 0.746369 56.8405 0.809228 56.2207 0.878945C55.8949 0.867516 55.6397 0.832086 55.569 0.772655C55.4825 0.844658 55.2216 0.958947 54.8775 1.04238C54.6462 1.07209 54.4161 1.10181 54.186 1.13381C54.1256 1.08124 54.3375 1.01609 54.448 0.982948C53.9855 1.01038 53.5844 1.05952 53.2244 1.11781C52.8644 1.17495 52.5477 1.26067 52.2469 1.33039C51.6465 1.47668 51.1179 1.59668 50.4754 1.61383C50.4389 1.55668 50.3512 1.54068 50.2441 1.54183C50.6052 1.46982 50.9516 1.42182 51.2637 1.37268C51.5759 1.32467 51.8562 1.28239 52.0863 1.2481C52.4657 1.19096 52.7129 1.15667 52.7585 1.15553C52.7186 0.98752 51.5588 1.14067 52.4531 0.753226C51.9895 0.893802 51.3651 1.10067 50.7135 1.28353C50.0641 1.47782 49.3896 1.66526 48.812 1.73155C48.7539 1.72583 48.697 1.71897 48.6491 1.70069L48.763 1.6584C48.4965 1.69269 48.2629 1.74869 48.0487 1.82755C47.6819 1.87898 47.4472 1.90984 47.0997 1.98413C47.0177 1.92812 46.6793 1.98413 46.2897 2.06756C46.0949 2.10984 45.8864 2.15785 45.6916 2.20699C45.4979 2.25956 45.3156 2.30871 45.1709 2.343C45.2632 2.51557 44.5204 2.67444 45.2256 2.65386C45.1994 2.64929 45.3931 2.591 45.7292 2.49843C45.8135 2.46986 45.916 2.447 45.9707 2.42186C45.9604 2.42986 45.9479 2.439 45.9354 2.447C46.3148 2.359 46.8081 2.24471 47.3697 2.11556C46.9334 2.31214 46.4754 2.49843 45.8123 2.53615C45.6608 2.64701 45.5025 2.76015 45.3612 2.8573C45.1367 2.91444 44.9135 2.97273 44.689 3.03102C44.3279 3.03559 43.9132 3.06645 43.5361 3.09502C43.012 3.14417 42.5643 3.1956 42.4367 3.14531C42.0083 3.29503 41.5389 3.44818 41.0593 3.60247C40.5842 3.76933 40.1012 3.94191 39.6409 4.11334C38.7158 4.44707 37.899 4.83337 37.4216 5.18881C36.9534 5.40139 36.8303 5.28596 36.6298 5.29624C36.8975 5.16367 37.2325 5.05281 37.3669 4.95109C37.1322 5.05738 36.8349 5.17624 36.5205 5.29853C36.2072 5.42539 35.879 5.56482 35.5737 5.69626C34.9642 5.96027 34.4538 6.20827 34.3866 6.36942C33.1471 6.75229 34.9722 5.87226 33.3442 6.59229L33.5367 6.42885C31.8369 6.9043 30.5962 7.64375 29.3294 8.39921C29.0149 8.5935 28.6971 8.78779 28.369 8.9798C28.2049 9.0758 28.0386 9.17066 27.8677 9.26553C27.6968 9.35924 27.5236 9.45296 27.3482 9.55239C26.9962 9.74783 26.6259 9.93755 26.2283 10.1216C25.8956 10.2781 25.5379 10.4221 25.1642 10.5741C25.2781 10.5296 25.3476 10.5079 25.3932 10.5159C24.8976 10.7604 24.4032 11.0176 23.9099 11.2827C23.6638 11.4153 23.4166 11.549 23.1716 11.6873C22.9301 11.8325 22.6886 11.9765 22.4459 12.1216C21.964 12.4153 21.4775 12.7079 21.0002 13.0154C20.5274 13.3297 20.0546 13.644 19.5818 13.9583C19.1056 14.2668 18.6453 14.5994 18.1805 14.9217C17.9481 15.0817 17.7157 15.2429 17.4832 15.4029C17.2497 15.5606 17.0173 15.7183 16.7906 15.884C16.3337 16.2098 15.8746 16.5275 15.4132 16.8361C15.297 16.9127 15.1819 16.9892 15.0669 17.0658C14.9529 17.1447 14.839 17.2224 14.7262 17.3012C14.4984 17.4567 14.2705 17.6098 14.0404 17.7595C13.5277 18.1116 13.2679 18.339 13.0743 18.5516C12.884 18.7687 12.7564 18.9653 12.5035 19.2533L12.1663 19.2647L11.3209 20.2728C10.6909 20.9459 10.0074 21.3665 9.29873 21.8614C8.95011 22.114 8.59238 22.3814 8.23009 22.7003C8.04895 22.8591 7.86666 23.0317 7.68324 23.2214C7.49868 23.4089 7.32551 23.6272 7.14664 23.8603L7.45653 23.7483C7.1512 24.0329 6.69777 24.5141 6.31839 24.8958C5.93446 25.2741 5.64736 25.577 5.63597 25.4684C5.59496 25.5484 5.55166 25.7678 5.27596 25.9541L5.18026 25.8981C4.75759 26.4398 4.32353 26.9701 3.92365 27.529C3.36882 28.097 3.32895 27.9793 3.23553 27.9348C3.18882 27.913 3.1273 27.9085 2.98147 28.0182C2.90856 28.073 2.81286 28.1565 2.68754 28.2799C2.56336 28.4045 2.40386 28.5656 2.21816 28.7896C1.69409 29.4845 0.885213 30.8846 1.14952 30.68C1.37624 30.416 1.76929 30.0388 1.8684 30.088L1.40928 30.728C1.40928 30.728 1.4127 30.736 1.41497 30.7406C1.06636 31.2149 1.00825 31.8492 1.45713 32.2995C1.85701 32.7006 2.67956 32.7818 3.06805 32.2995C10.3947 23.2089 19.7458 15.9046 30.2191 10.8039C40.607 5.7454 52.1 2.89387 63.6522 2.67901C66.4867 2.62643 69.3599 2.67558 72.1762 3.01502C74.5573 3.30189 77.042 3.91334 79.0494 5.2791C79.6692 5.70083 80.2081 6.22085 80.641 6.81058C80.6421 6.81401 80.6444 6.81744 80.6455 6.82087C80.6888 6.91001 80.7219 7.01173 80.764 7.11916C80.8084 7.22545 80.8449 7.34546 80.8848 7.47346C80.936 7.60718 80.9816 7.72376 81.0397 7.83005C81.0967 7.93748 81.1662 8.03463 81.2231 8.14091C81.2812 8.2472 81.3519 8.35806 81.4066 8.4895C81.4556 8.62207 81.5125 8.77294 81.5399 8.9558L81.3325 8.99466C81.3781 9.15238 81.4396 9.31238 81.4704 9.47696L81.5273 9.72611C81.5467 9.80954 81.5547 9.89412 81.5695 9.97984C81.5205 10.0667 81.4772 10.1524 81.4259 10.2347L81.2664 10.4793C81.2642 10.5924 81.2493 10.7044 81.2357 10.8176C81.2209 10.9307 81.2129 11.045 81.189 11.157C81.2357 11.0267 81.2767 10.8884 81.3291 10.7902C81.3792 10.6919 81.4282 10.6313 81.4533 10.6564C81.4134 11.2039 81.181 11.8496 80.9121 12.3205C80.6444 12.7948 80.3698 13.1068 80.3197 13.0931C79.9586 13.8828 79.4971 14.652 78.964 15.3812C78.9514 15.332 79.0118 15.2154 79.0938 15.0703C79.177 14.9263 79.2852 14.7571 79.3661 14.5983C79.0221 15.2303 78.9264 15.244 78.8523 15.2452C78.8136 15.2452 78.7783 15.2429 78.7076 15.3103C78.637 15.3777 78.5367 15.516 78.3522 15.7926C78.506 15.6932 78.3818 15.948 78.3921 15.9995C78.2588 16.1012 78.0879 16.2406 77.9033 16.4121C77.7119 16.5778 77.5068 16.7744 77.2835 16.9767C76.8392 17.3835 76.3528 17.8293 75.9392 18.2076L76.0121 17.9573C75.2272 18.5939 74.3818 19.251 73.4807 19.8922C73.2585 20.0522 73.0193 20.2133 72.7846 20.3745C72.5476 20.5356 72.3106 20.6979 72.0714 20.8602C71.5929 21.1848 71.1087 21.5094 70.62 21.8294C71.3582 21.426 71.3343 21.7425 70.7738 22.1391L70.424 22.1037C70.1278 22.4626 71.0688 21.7803 70.3989 22.4214C69.6539 22.8797 69.7712 22.5311 70.1506 22.1951L69.3041 22.8431C69.2164 22.8214 69.4055 22.6557 69.4146 22.5483C69.3417 22.6374 69.2027 22.7334 69.0273 22.834C68.8507 22.9323 68.6376 23.0363 68.4223 23.146C67.9905 23.3654 67.5462 23.6089 67.3434 23.8775L67.258 23.8535C66.2679 24.4729 65.5582 24.9404 64.8951 25.3804C64.2275 25.8124 63.5998 26.2078 62.7875 26.7027C62.8535 26.8867 62.1928 27.233 61.7849 27.6582C60.5591 28.3371 59.1259 28.9622 57.671 29.816C56.689 30.4868 57.45 30.1291 57.0433 30.4937C56.9624 30.4388 56.5591 30.624 56.2617 30.7554C55.9644 30.8846 55.7718 30.9554 56.125 30.6914C54.3614 31.6857 53.8727 31.9589 51.6887 33.3075C51.9667 33.2401 52.2561 33.1166 52.1421 33.2469C51.7491 33.4995 51.1703 33.6732 51.192 33.5704L51.2922 33.4984C50.0766 34.2755 48.5443 34.9293 47.0838 35.551C45.6631 36.127 44.3142 36.6825 43.3697 37.3214C42.6907 37.734 41.9992 38.1191 41.3099 38.5123C40.3074 38.9477 41.8477 38.1157 41.0696 38.3603C39.9724 39.0346 39.0508 39.4529 38.1769 39.8369C37.2963 40.2072 36.4601 40.5352 35.5361 41.0518C34.6851 41.1432 33.3738 41.7512 31.9816 42.3547C31.2878 42.6621 30.5803 42.9833 29.9104 43.2599C29.2416 43.5376 28.6116 43.7742 28.0671 43.8953L28.23 43.9616C27.7447 44.2805 27.5646 44.1502 27.1636 44.277C27.2536 44.3433 27.7777 44.1525 27.4735 44.3433C26.3661 44.8199 25.2291 45.2759 24.0751 45.7194C22.9119 46.1388 21.7316 46.5445 20.5467 46.9446C19.3642 47.3549 18.1611 47.7126 16.966 48.084C16.369 48.2703 15.7732 48.4555 15.1785 48.6406C14.8811 48.7321 14.5872 48.8303 14.2887 48.9172C13.9914 49.0052 13.6952 49.0944 13.399 49.1824C11.673 49.7092 12.6186 50.0978 10.3628 50.5264L10.9097 50.1115C10.487 50.2841 10.0586 50.4521 9.6257 50.6087C9.19049 50.7596 8.75301 50.9047 8.31212 51.0464C7.43032 51.3287 6.54055 51.5962 5.65192 51.8613C5.42976 51.9276 5.2076 51.9939 4.98659 52.0602C4.76443 52.1253 4.54113 52.1847 4.31897 52.2476C3.87466 52.3722 3.43148 52.4968 2.99172 52.6259C2.11221 52.8831 1.24522 53.1528 0.401023 53.4488C0.592421 53.3414 0.581028 53.2739 0.915973 53.1814C0.68698 53.1951 0.354313 53.2671 0 53.3654L0.219879 54.1928C-0.272286 54.9448 0.337224 56.2557 1.46054 55.9563C10.0415 53.6739 18.6556 51.5196 27.3015 49.4989C35.9052 47.4886 44.5386 45.6097 53.1982 43.8622C61.9011 42.1055 70.6302 40.4826 79.3832 38.9934C81.1035 38.7008 82.8261 38.4151 84.5487 38.1317C84.4302 38.3488 84.3003 38.5671 84.159 38.7637L83.6065 39.5283L84.298 39.7706C84.2695 40.1763 84.4222 40.5843 84.8415 40.7741C86.9354 41.7238 88.6238 40.1843 89.9602 38.71C90.4683 38.15 90.9719 37.5865 91.4766 37.0242C94.1915 36.6013 96.9098 36.191 99.6281 35.7933C99.6292 35.887 99.7272 35.7899 99.7807 35.7716C99.7864 35.7716 99.791 35.7705 99.7967 35.7693C99.8229 35.7716 99.824 35.8196 99.7613 35.9899C99.4367 36.3499 99.3615 36.0813 99.4788 35.8219L99.1712 36.3248C99.0983 36.3088 99.1575 36.1808 99.1154 36.0985C99.0744 36.3773 98.2985 36.7225 98.2586 37.1431L98.1869 37.1236C97.7608 37.6014 97.468 37.9648 97.1832 38.294C97.0419 38.4597 96.9075 38.6231 96.7605 38.79C96.6124 38.9546 96.4552 39.126 96.2752 39.3157C96.2968 39.3432 96.3048 39.3729 96.3025 39.4072C96.0883 39.4929 96.151 39.3203 95.7807 39.5009C95.9607 39.5512 95.6816 39.8449 95.276 40.0918L95.9174 39.8369C95.529 40.2769 95.2806 40.3626 95.03 40.4506C94.7793 40.5375 94.5264 40.6266 94.1459 41.0826L94.3475 40.7466C94.1402 40.9661 93.713 41.3169 93.3142 41.6987C92.9143 42.0792 92.5452 42.4907 92.437 42.8096C92.3265 42.8427 92.1465 42.8507 92.3231 42.6541C91.611 43.2416 90.9445 44.0782 90.3214 44.7673L90.6358 45.1422C89.926 46.0417 91.0881 47.5766 92.1134 46.828C94.286 45.2416 96.3378 43.4976 98.2359 41.5924C99.0596 40.9684 99.8981 40.3626 100.753 39.7797C102.314 38.7157 103.955 37.8185 105.569 36.8425C105.994 36.5853 106.388 36.2985 106.788 36.0105C106.799 36.0299 106.809 36.0493 106.818 36.0688C106.867 36.1682 106.906 36.2733 106.907 36.4379C106.908 36.6025 106.866 36.8196 106.777 37.1717C106.709 37.0345 106.644 36.8928 106.581 36.7533C106.597 37.3225 106.614 37.9385 106.779 38.5831C106.861 38.9043 106.987 39.23 107.156 39.5329C107.265 39.726 107.397 39.9089 107.545 40.0792C107.995 40.9741 108.782 41.6472 109.803 41.9501C112.553 42.7684 115.417 41.1466 117.565 39.5912C117.654 39.5272 117.74 39.4597 117.828 39.3946C117.832 39.558 117.843 39.7226 117.856 39.8883C117.837 39.8883 117.819 39.8792 117.802 39.8197C117.823 39.9363 117.851 40.0506 117.884 40.1626C117.987 41.0198 118.244 41.8655 118.801 42.4998C119.732 43.5593 121.168 43.5776 122.375 43.037C123.557 42.5078 124.431 41.5569 125.215 40.5546C126.644 38.7283 127.953 36.8151 129.12 34.8127C129.238 35.1979 128.964 35.4733 129.224 36.0493C129.155 36.079 129.255 36.5168 129.08 36.4356C129.14 36.7271 129.168 36.6871 129.185 36.5819C129.198 36.5111 129.211 36.4128 129.233 36.3613C129.295 38.07 129.853 39.75 131.577 40.414C133.062 40.9866 134.82 40.4975 136.003 39.4963C137.561 38.1785 138.078 36.0368 138.476 34.1258C138.601 33.5224 138.299 32.8904 137.681 32.7201L137.687 32.7235ZM46.2794 2.19671C46.2703 2.20585 46.2487 2.21956 46.2396 2.22985C46.268 2.18642 46.3022 2.14299 46.3706 2.10184C46.75 1.98984 46.8878 1.99784 46.9493 2.02413C46.7682 2.06756 46.5563 2.12127 46.2806 2.19671H46.2794ZM33.3556 45.7708C32.4533 45.9742 31.5521 46.18 30.6509 46.3857L30.6133 46.1217C30.9585 45.9811 31.3037 45.8394 31.6489 45.6965C32.0431 45.7548 32.0727 45.7159 31.1693 46.0817L33.4034 45.4519L32.0055 46.0154C32.6879 45.8611 33.4216 45.5822 33.8375 45.5228C33.3897 45.7137 33.2735 45.7502 33.3544 45.772L33.3556 45.7708ZM84.5692 38.606C84.5122 38.5751 84.4575 38.59 84.404 38.622C84.5817 38.4243 84.748 38.238 84.8916 38.0791C84.9656 38.0665 85.0397 38.0551 85.1126 38.0425C84.9622 38.254 84.8084 38.446 84.5692 38.6048V38.606ZM99.906 35.7739L99.8343 35.7682C99.8616 35.7636 99.8901 35.7602 99.9174 35.7556C99.914 35.7613 99.9106 35.767 99.906 35.7739ZM102.943 30.8686C102.888 30.8286 102.893 30.6903 102.884 30.5566C102.89 30.6503 102.88 30.712 102.865 30.7474C102.843 30.7966 102.812 30.8023 102.782 30.8046C102.717 30.8126 102.666 30.8046 102.649 31.1314C102.725 31.0686 102.75 31.2206 102.782 31.2514C102.662 31.3794 102.522 31.6092 102.362 31.8515C102.291 31.9612 102.18 32.1235 102.09 32.2686C101.997 32.4172 101.909 32.5669 101.833 32.7063L101.78 32.5235C101.607 32.7635 101.434 33.0138 101.258 33.2721C101.148 33.2881 101.037 33.3041 100.927 33.3201C100.917 33.3201 100.906 33.3212 100.897 33.3224L100.928 33.2755C100.914 33.2938 100.897 33.3109 100.876 33.3269C100.189 33.4252 99.5016 33.5247 98.8146 33.6241C98.9069 33.5898 99.022 33.5532 99.1666 33.5121L98.2837 33.6447C98.2302 33.6744 98.1721 33.703 98.1037 33.7292C97.8519 33.7658 97.599 33.8035 97.3472 33.8412L97.4441 33.7327C96.8881 33.8207 96.3344 33.9521 95.7443 34.079C95.112 34.1738 94.4797 34.271 93.8474 34.367C94.0149 34.1761 94.1846 33.9875 94.3521 33.7967C95.8764 32.9075 97.476 32.1475 99.1359 31.5349C100.318 31.0983 101.626 30.5817 102.881 30.4183C102.917 30.4137 102.949 30.4103 102.98 30.408C102.981 30.5531 102.968 30.7097 102.944 30.8686H102.943ZM122.011 30.0811C122.222 29.9268 122.501 29.776 122.695 29.6365L122.753 29.7462C122.559 29.8743 122.377 29.9954 122.199 30.1131C122.025 30.2331 121.869 30.3668 121.707 30.4903C121.66 30.3954 121.807 30.2457 122.011 30.0823V30.0811ZM118.975 33.2698C118.892 33.4218 118.81 33.5727 118.728 33.7235C118.688 33.799 118.647 33.8732 118.609 33.9498C118.576 34.0275 118.543 34.1053 118.51 34.183C118.447 34.3384 118.383 34.4938 118.328 34.6504C118.281 34.8104 118.239 34.9693 118.203 35.1293C118.261 35.0939 118.294 35.1259 118.312 35.199C118.334 35.287 118.33 35.4333 118.337 35.5944C118.337 35.6699 118.337 35.7465 118.337 35.8219C118.329 35.8459 118.322 35.8699 118.314 35.895C118.289 35.9236 118.26 35.9533 118.222 35.9853C118.194 35.9888 118.184 35.9693 118.181 35.9533C118.17 36.0288 117.948 36.2722 118.071 36.287C118.055 36.3019 118.039 36.3156 118.023 36.3305C117.948 36.3636 117.872 36.4025 117.797 36.4459C117.673 36.5145 117.549 36.5956 117.426 36.6871C117.182 36.8722 116.927 37.0734 116.68 37.2814C116.431 37.4871 116.175 37.678 115.934 37.8391C115.687 37.9911 115.449 38.1043 115.232 38.1443C115.099 38.246 114.956 38.3465 114.811 38.4517C114.666 38.5557 114.518 38.6631 114.366 38.7591C114.214 38.8563 114.064 38.9523 113.92 39.0449C113.777 39.134 113.641 39.2083 113.51 39.2757C113.526 39.2231 113.483 39.214 113.586 39.1774C113.218 39.2917 113.133 39.4163 113.043 39.55C112.87 39.6072 112.693 39.6597 112.517 39.7043C112.552 39.6872 112.552 39.6769 112.478 39.6803C112.349 39.4872 112.101 39.5843 111.787 39.6929C111.478 39.8026 111.089 39.9157 110.791 39.7992L110.93 39.7649C110.77 39.7226 110.595 39.7352 110.401 39.7557C110.331 39.734 110.263 39.7089 110.197 39.6792C110.055 39.614 109.907 39.5157 109.798 39.3957C109.645 39.2243 109.535 39.0437 109.458 38.7431C109.285 38.0745 109.416 37.3259 109.524 36.6551C109.633 35.9739 109.729 35.1179 109.545 34.4104C112.705 33.9864 115.866 33.5795 119.029 33.1921C119.012 33.2184 118.995 33.2458 118.977 33.2721L118.975 33.2698ZM127.585 32.7338C127.728 32.232 127.409 32.8366 127.761 32.2366C127.392 32.7829 127.233 32.8595 127.034 33.559C127.004 33.2641 126.605 33.8767 126.481 34.1647C126.596 34.0561 126.712 33.9475 126.824 33.8355C126.668 34.151 126.49 34.4013 126.315 34.6596L126.211 34.3967C126.093 34.5201 125.993 34.6493 125.904 34.7807C125.812 34.9099 125.731 35.0424 125.659 35.1773C125.512 35.4436 125.404 35.7213 125.281 35.9785C125.161 36.2368 125.042 36.4859 124.894 36.7053C124.742 36.9225 124.558 37.1088 124.316 37.2482C124.239 37.6288 124.83 36.7236 124.797 37.0882C124.604 37.3305 124.35 37.5351 124.127 37.6951C123.901 37.8528 123.711 37.9694 123.653 38.046C123.501 38.1945 123.414 38.3203 123.356 38.4357C123.296 38.55 123.268 38.654 123.241 38.7603C123.186 38.9706 123.128 39.1969 122.822 39.5089C122.886 39.4952 122.98 39.4974 123.01 39.5774C123.021 39.6037 123.024 39.6403 123.017 39.6872C123.015 39.6895 123.013 39.6917 123.01 39.6952C122.842 39.8906 122.639 40.1112 122.416 40.3192C122.369 40.3295 122.328 40.3306 122.296 40.3226C122.19 40.2952 122.177 40.1878 122.285 40.0403C122.379 39.9409 122.444 39.9112 122.459 39.934C122.571 39.7797 122.704 39.5763 122.489 39.6837L122.497 39.7935C122.37 39.8689 122.167 40.0415 121.994 40.1558C121.822 40.2712 121.688 40.3318 121.717 40.2255C121.578 40.3809 121.559 40.4312 121.614 40.4289C121.652 40.4278 121.728 40.3946 121.816 40.3455C121.557 40.4986 121.356 40.6278 121.151 40.7432C121.035 40.8095 120.916 40.8666 120.788 40.9146C120.703 40.9455 120.615 40.9695 120.522 40.9844C120.195 40.6643 120.145 39.902 120.12 39.4494C120.08 38.7248 120.139 38.014 120.292 37.3134C121.744 35.9053 123.018 34.3213 124.077 32.5909C125.376 32.4389 126.675 32.2903 127.975 32.144C127.904 32.2915 127.8 32.4583 127.585 32.7384V32.7338Z" fill="#212121"/>
<path d="M57.2889 40.7035C57.502 40.6555 57.5874 40.6155 57.5943 40.5938C57.3983 40.6475 57.2377 40.6943 57.2889 40.7035Z" fill="#212121"/>
<path d="M52.7187 41.375C52.6071 41.375 52.4954 41.3864 52.4316 41.4161C52.5365 41.4013 52.6242 41.3887 52.7187 41.375Z" fill="#212121"/>
<path d="M98.0527 33.6785L98.2829 33.6443C98.3467 33.6088 98.4059 33.5688 98.4617 33.5254L98.0527 33.6797V33.6785Z" fill="#212121"/>
<path d="M1.32227 30.8573L1.41455 30.7304C1.39746 30.695 1.38037 30.6596 1.35303 30.6367L1.3234 30.8573H1.32227Z" fill="#212121"/>
<path d="M43.5918 42.9891C43.6089 42.9868 43.6157 42.9868 43.6317 42.9845C43.8584 42.9148 43.7285 42.9456 43.5918 42.9891Z" fill="#212121"/>
<path d="M38.5179 44.4805L38.1396 44.5376C38.2912 44.5228 38.4119 44.5022 38.5179 44.4805Z" fill="#212121"/>
<path d="M81.1928 11.1641C81.1609 11.2646 81.1415 11.3606 81.1449 11.4349L81.1928 11.1641Z" fill="#212121"/>
<path d="M52.7627 1.1582C52.7627 1.1582 52.7627 1.16048 52.7638 1.16162C52.773 1.15934 52.7719 1.1582 52.7627 1.1582Z" fill="#212121"/>
<path d="M25.1711 10.5762C25.1129 10.599 25.0435 10.6287 24.958 10.663C25.0298 10.6333 25.1004 10.6047 25.1711 10.5762Z" fill="#212121"/>
<path d="M44.126 42.9571C44.2479 42.9297 44.3595 42.9 44.4621 42.8691C44.3174 42.9034 44.2091 42.932 44.126 42.9571Z" fill="#212121"/>
<path d="M38.083 44.6578C38.0021 44.6978 37.9167 44.7298 37.8301 44.7595C38.0089 44.699 38.2641 44.6464 38.083 44.6578Z" fill="#212121"/>
<path d="M45.7358 2.5026C45.6811 2.52089 45.6527 2.53575 45.582 2.55632C45.6641 2.55289 45.7415 2.54832 45.8201 2.54032C45.8623 2.50946 45.9056 2.4786 45.942 2.45117C45.8725 2.46832 45.7996 2.48317 45.7358 2.5026Z" fill="#212121"/>
<path d="M81.2715 8.81836L81.284 8.91322L81.2886 9.00922L81.3364 9.00122L81.3079 8.90865L81.2715 8.81836Z" fill="#212121"/>
<path d="M75.3791 37.3515L75.427 37.1777C74.8312 37.3069 75.3883 37.2486 75.3791 37.3515Z" fill="#212121"/>
<path d="M65.3572 38.7949L64.333 39.0532L65.0906 38.8715L65.3572 38.7949Z" fill="#212121"/>
<path d="M122.373 40.0806C122.451 39.9971 122.469 39.948 122.459 39.9297C122.395 40.0143 122.343 40.0851 122.373 40.0806Z" fill="#212121"/>
<path d="M101.607 20.6096C101.615 20.6218 101.625 20.6218 101.633 20.6307C101.637 20.5952 101.633 20.5797 101.607 20.6096Z" fill="#212121"/>
<path d="M115.14 38.1575C115.168 38.1575 115.2 38.1484 115.231 38.1438C115.266 38.1153 115.307 38.0833 115.344 38.0547C115.275 38.089 115.209 38.1255 115.14 38.1587V38.1575Z" fill="#212121"/>
<path d="M118.222 34.8418C118.141 35.0875 117.97 35.3938 118.118 35.411C118.127 35.3264 118.15 35.2452 118.165 35.1618C118.178 35.1481 118.192 35.139 118.203 35.1321C118.178 35.1172 118.198 34.9755 118.223 34.8429L118.222 34.8418Z" fill="#212121"/>
<path d="M102.883 30.5389C102.88 30.5092 102.877 30.476 102.87 30.4395C102.876 30.4714 102.879 30.5046 102.883 30.5389Z" fill="#212121"/>
<path d="M118.206 35.1313V35.1289L118.203 35.1313H118.206Z" fill="#212121"/>
<path d="M118.181 35.9539C118.182 35.9462 118.181 35.9408 118.179 35.9375C118.179 35.9375 118.179 35.9451 118.181 35.9539Z" fill="#212121"/>
<path d="M88.8271 34.4701C88.8488 34.4564 88.8717 34.4426 88.8968 34.4277C88.8694 34.4415 88.8466 34.4564 88.8271 34.4701Z" fill="#212121"/>
<path d="M117.807 39.8254C117.802 39.7992 117.796 39.7742 117.791 39.748C117.796 39.781 117.801 39.8061 117.807 39.8254Z" fill="#212121"/>
<path d="M118.222 34.8375C118.233 34.8032 118.243 34.7678 118.25 34.7358C118.301 34.49 118.257 34.6535 118.222 34.8375Z" fill="#212121"/>
<path d="M124.841 36.2988C124.75 36.4703 124.66 36.6417 124.563 36.8097C124.638 36.6874 124.708 36.5628 124.777 36.4383L124.841 36.2988Z" fill="#212121"/>
<path d="M115.706 37.5639L115.913 37.6782C116.079 37.5079 115.975 37.285 115.706 37.5639Z" fill="#212121"/>
</svg>
