<svg width="15" height="15" viewBox="0 0 15 15" fill="none" xmlns="http://www.w3.org/2000/svg">
<g clip-path="url(#clip0_1298_5)">
<path d="M13.48 0.1C13.27 0.03 13.05 0 12.84 0C11.92 0 11.07 0.6 10.78 1.55L10.17 3.57L9.56 1.55C9.26 0.6 8.41 0 7.49 0C7.28 0 7.06 0.03 6.85 0.1C5.71 0.46 5.07 1.69 5.43 2.86L5.74 3.86C5.5 3.73 5.22 3.66 4.93 3.66H4.3C3.97 3.66 3.66 3.75 3.39 3.92C3.12 3.75 2.81 3.66 2.47 3.66H1.85C0.82 3.66 0 4.5 0 5.55V8.07C0 8.9 0.51 9.59 1.23 9.84V10.64C1.23 13.05 3.14 14.99 5.49 14.99H9.3C11.66 14.99 13.56 13.04 13.56 10.64V7.26L14.89 2.86C15.25 1.69 14.62 0.46 13.48 0.1ZM4.3 4.74H4.93C5.36 4.74 5.72 5.1 5.72 5.55V6.61C5.63 6.66 5.55 6.72 5.47 6.8C5.29 6.95 5.14 7.14 5.02 7.36C4.93 7.53 4.86 7.71 4.82 7.89C4.75 8.22 4.75 8.56 4.84 8.88H4.3C4.3 8.88 4.19 8.87 4.14 8.86C3.79 8.79 3.51 8.46 3.51 8.07V5.55C3.51 5.16 3.79 4.83 4.14 4.76C4.19 4.75 4.25 4.74 4.3 4.74ZM1.05 8.07V5.55C1.05 5.1 1.41 4.74 1.85 4.74H2.47C2.52 4.74 2.58 4.75 2.63 4.76C2.52 5 2.46 5.27 2.46 5.55V8.07C2.46 8.35 2.52 8.62 2.63 8.86C2.58 8.87 2.52 8.88 2.47 8.88H1.85C1.6 8.88 1.37 8.76 1.23 8.57C1.12 8.43 1.05 8.26 1.05 8.07ZM13.89 2.55L12.55 6.95L12.5 7.11V10.65C12.5 12.45 11.07 13.92 9.3 13.92H5.49C3.72 13.92 2.29 12.45 2.29 10.65V9.96H2.47C2.81 9.96 3.12 9.87 3.39 9.7C3.66 9.87 3.97 9.96 4.3 9.96H4.93C5.11 9.96 5.28 9.94 5.44 9.89C5.55 10 5.67 10.09 5.81 10.17L8.89 11.91L9.39 11.04L6.32 9.31H6.31C5.82 9.02 5.63 8.4 5.88 7.89C5.88 7.87 5.89 7.85 5.9 7.83C6.04 7.58 6.26 7.4 6.53 7.32C6.61 7.3 6.69 7.28 6.77 7.28C6.95 7.28 7.13 7.32 7.3 7.42L8.06 7.85L10.38 9.16L10.88 8.29L7.8 6.55C7.8 6.55 7.69 6.49 7.63 6.47L6.43 2.55C6.35 2.26 6.37 1.95 6.51 1.68C6.65 1.41 6.88 1.22 7.15 1.13C7.26 1.1 7.37 1.08 7.48 1.08C7.96 1.08 8.39 1.39 8.53 1.87L9.15 3.88L10.15 7.19L11.15 3.88L11.76 1.87C11.91 1.39 12.33 1.08 12.82 1.08H12.84C12.94 1.08 13.06 1.1 13.16 1.13C13.74 1.32 14.07 1.95 13.89 2.55Z" fill="black"/>
</g>
<defs>
<clipPath id="clip0_1298_5">
<rect width="14.99" height="14.99" fill="white"/>
</clipPath>
</defs>
</svg>
